<svg width="28" height="28" viewBox="0 0 28 28" fill="none" xmlns="http://www.w3.org/2000/svg">
<path d="M8.16667 10.5V8.16666H24.5V10.5H8.16667ZM8.16667 15.1667V12.8333H24.5V15.1667H8.16667ZM8.16667 19.8333V17.5H24.5V19.8333H8.16667ZM4.66667 10.5C4.33611 10.5 4.05922 10.388 3.836 10.164C3.61278 9.94 3.50078 9.66311 3.5 9.33333C3.5 9.00278 3.612 8.72589 3.836 8.50266C4.06 8.27944 4.33689 8.16744 4.66667 8.16666C4.99722 8.16666 5.2745 8.27866 5.4985 8.50266C5.7225 8.72666 5.83411 9.00355 5.83333 9.33333C5.83333 9.66389 5.72133 9.94116 5.49733 10.1652C5.27333 10.3892 4.99644 10.5008 4.66667 10.5ZM4.66667 15.1667C4.33611 15.1667 4.05922 15.0547 3.836 14.8307C3.61278 14.6067 3.50078 14.3298 3.5 14C3.5 13.6694 3.612 13.3926 3.836 13.1693C4.06 12.9461 4.33689 12.8341 4.66667 12.8333C4.99722 12.8333 5.2745 12.9453 5.4985 13.1693C5.7225 13.3933 5.83411 13.6702 5.83333 14C5.83333 14.3306 5.72133 14.6078 5.49733 14.8318C5.27333 15.0558 4.99644 15.1674 4.66667 15.1667ZM4.66667 19.8333C4.33611 19.8333 4.05922 19.7213 3.836 19.4973C3.61278 19.2733 3.50078 18.9964 3.5 18.6667C3.5 18.3361 3.612 18.0592 3.836 17.836C4.06 17.6128 4.33689 17.5008 4.66667 17.5C4.99722 17.5 5.2745 17.612 5.4985 17.836C5.7225 18.06 5.83411 18.3369 5.83333 18.6667C5.83333 18.9972 5.72133 19.2745 5.49733 19.4985C5.27333 19.7225 4.99644 19.8341 4.66667 19.8333Z" fill="#0085FF"/>
</svg>
